<svg xmlns="http://www.w3.org/2000/svg" viewBox="0 0 64 64" width="64" height="64">
  <defs>
    <linearGradient id="bg" x1="0" y1="0" x2="1" y2="1">
      <stop offset="0" stop-color="#2b2f7a"/>
      <stop offset="1" stop-color="#15173f"/>
    </linearGradient>
    <linearGradient id="teal" x1="0" y1="0" x2="1" y2="1">
      <stop offset="0" stop-color="#4fe3c1"/>
      <stop offset="1" stop-color="#10b981"/>
    </linearGradient>
  </defs>
  <rect x="2" y="2" width="60" height="60" rx="16" fill="url(#bg)"/>
  <path d="M22 50 A22 22 0 0 1 22 14" fill="none" stroke="url(#teal)" stroke-width="3.2" stroke-linecap="round" opacity="0.9"/>
  <g>
    <rect x="22" y="13" width="26" height="32" rx="3" fill="#fbfbff"/>
    <path d="M42 13 h6 v6 z" fill="#dfe1f2"/>
    <rect x="26" y="21" width="12" height="2.4" rx="1.2" fill="#c7cae0"/>
    <rect x="26" y="27" width="14" height="2.4" rx="1.2" fill="#c7cae0"/>
    <text x="38" y="41" font-family="Georgia, serif" font-size="21" font-weight="700" fill="#1e1b4b" text-anchor="middle">§</text>
  </g>
  <g transform="translate(34 33)">
    <path d="M0 2 L11 -2 L22 2 L22 12 C22 20 17 25 11 27 C5 25 0 20 0 12 Z" fill="url(#teal)"/>
    <path d="M6.5 12.5 l3.2 3.4 l6.2 -7.2" fill="none" stroke="#fff" stroke-width="2.6" stroke-linecap="round" stroke-linejoin="round"/>
  </g>
</svg>
